<svg version="1.1" xmlns="http://www.w3.org/2000/svg" xmlns:xlink="http://www.w3.org/1999/xlink" x="0px" y="0px" viewBox="0 0 490 143" xml:space="preserve">
   <style>
    .rot-w5 {
        position: relative;
        animation: spin1 2s infinite linear;
        display: block;
        transform-origin: 17.2% 83.8%;

    }


    @keyframes spin1 {
        0% {
            transform: rotate(0deg);
        }
        100% {
            transform: rotate(360deg);
        }
    }

</style>

<g id="wheel5">
    <g class="rot-w">
        <radialGradient id="SVGID_61_" cx="400.9659" cy="119.5358" r="15.7127" gradientUnits="userSpaceOnUse">
            <stop offset="0.6992" style="stop-color:#514F52" />
            <stop offset="0.7468" style="stop-color:#4D4B4D" />
            <stop offset="0.8193" style="stop-color:#403F41" />
            <stop offset="0.9073" style="stop-color:#2D2C2E" />
            <stop offset="1" style="stop-color:#141414" />
        </radialGradient>
        <path class="st65" d="M416.7,119.5c0,8.7-7,15.7-15.7,15.7c-8.7,0-15.7-7-15.7-15.7c0-8.7,7-15.7,15.7-15.7
			C409.6,103.8,416.7,110.9,416.7,119.5z" />
        <radialGradient id="SVGID_62_" cx="400.9649" cy="119.5353" r="9.1665" gradientUnits="userSpaceOnUse">
            <stop offset="0" style="stop-color:#FFFFFF" />
            <stop offset="1.339828e-02" style="stop-color:#FAFAFA" />
            <stop offset="0.1136" style="stop-color:#D9D8D8" />
            <stop offset="0.1946" style="stop-color:#C5C4C4" />
            <stop offset="0.2458" style="stop-color:#BDBDBC" />
            <stop offset="0.2948" style="stop-color:#CDCCCC" />
            <stop offset="0.3734" style="stop-color:#E0DFDF" />
            <stop offset="0.4498" style="stop-color:#ECECEB" />
            <stop offset="0.5212" style="stop-color:#F0F0F0" />
            <stop offset="0.6776" style="stop-color:#F0F0F0" />
            <stop offset="0.7034" style="stop-color:#F0F0F0" />
            <stop offset="0.8448" style="stop-color:#EEEEEE" />
            <stop offset="0.8958" style="stop-color:#E8E7E7" />
            <stop offset="0.9321" style="stop-color:#DCDBDB" />
            <stop offset="0.9615" style="stop-color:#CCCACA" />
            <stop offset="0.9863" style="stop-color:#B7B6B6" />
            <stop offset="1" style="stop-color:#A8A8A8" />
        </radialGradient>
        <path class="st66" d="M401,128.7c-5.1,0-9.2-4.1-9.2-9.2c0-5.1,4.1-9.2,9.2-9.2c5.1,0,9.2,4.1,9.2,9.2
			C410.1,124.6,406,128.7,401,128.7z" />
        <linearGradient id="SVGID_63_" gradientUnits="userSpaceOnUse" x1="395.4053" y1="112.5857" x2="406.7487" y2="126.7647">
            <stop offset="0" style="stop-color:#FFFFFF" />
            <stop offset="0.1108" style="stop-color:#FDFDFD" />
            <stop offset="0.1547" style="stop-color:#F7F7F7" />
            <stop offset="0.1868" style="stop-color:#ECEBEC" />
            <stop offset="0.213" style="stop-color:#DCDBDC" />
            <stop offset="0.2355" style="stop-color:#C9C8C8" />
            <stop offset="0.2458" style="stop-color:#BDBDBC" />
            <stop offset="0.2553" style="stop-color:#C7C7C6" />
            <stop offset="0.2795" style="stop-color:#DBDADB" />
            <stop offset="0.3076" style="stop-color:#EBEBEB" />
            <stop offset="0.3413" style="stop-color:#F7F7F7" />
            <stop offset="0.3865" style="stop-color:#FDFDFD" />
            <stop offset="0.4915" style="stop-color:#FFFFFF" />
            <stop offset="0.9281" style="stop-color:#FFFFFF" />
            <stop offset="1" style="stop-color:#FFFFFF" />
        </linearGradient>
        <path class="st67" d="M401,128.7c-5.1,0-9.2-4.1-9.2-9.2c0-5.1,4.1-9.2,9.2-9.2c5.1,0,9.2,4.1,9.2,9.2
			C410.1,124.6,406,128.7,401,128.7z" />
        <path class="st68" d="M401,122.2c-1.4,0-2.6-1.2-2.6-2.6c0-1.4,1.2-2.6,2.6-2.6c1.4,0,2.6,1.2,2.6,2.6
			C403.6,121,402.4,122.2,401,122.2z" />
    </g>
</g>
</svg>