<?xml version="1.0" encoding="utf-8"?>
<!-- Generator: Adobe Illustrator 22.0.1, SVG Export Plug-In . SVG Version: 6.00 Build 0)  -->
<svg version="1.1" id="Capa_1" xmlns="http://www.w3.org/2000/svg" xmlns:xlink="http://www.w3.org/1999/xlink" x="0px" y="0px"
	 viewBox="0 0 721 259.3" style="enable-background:new 0 0 721 259.3;" xml:space="preserve">
<style type="text/css">
	.st0{fill:#5C616C;}
	.st1{fill:#4E535C;}
	.st2{fill:#323948;}
	.st3{fill:#FFFFFF;}
	.st4{fill:#71A42D;}
	.st5{fill:#50504F;}
	.st6{fill:#231F20;}
	.st7{fill:#3B3A3A;}
	.st8{fill:#3A7830;}
	.st9{fill:#216A2E;}
	.st10{fill:#6E7580;}
	.st11{fill:#FAB318;}
</style>
<rect x="53.2" y="168.3" class="st0" width="559.3" height="48.9"/>
<rect x="53.2" y="168.3" class="st1" width="559.3" height="25"/>
<circle class="st2" cx="541.5" cy="223.4" r="36.6"/>
<circle class="st3" cx="541.5" cy="223.4" r="22"/>
<circle class="st2" cx="541.5" cy="223.4" r="13.7"/>
<circle class="st2" cx="221.8" cy="223.4" r="36.6"/>
<circle class="st3" cx="221.8" cy="223.4" r="22"/>
<circle class="st2" cx="221.8" cy="223.4" r="13.7"/>
<ellipse transform="matrix(0.3827 -0.9239 0.9239 0.3827 -125.2071 259.4175)" class="st2" cx="131.5" cy="223.4" rx="36.6" ry="36.6"/>
<circle class="st3" cx="131.5" cy="223.4" r="22"/>
<circle class="st2" cx="131.5" cy="223.4" r="13.7"/>
<path class="st4" d="M651.9,115.8v108.3h-63.1V203c0-19.1-15.5-34.6-34.6-34.6H485v-120h142.8L651.9,115.8z"/>
<rect x="543.1" y="48.4" class="st5" width="3.1" height="120"/>
<rect x="494.2" y="60" class="st6" width="40.7" height="55.4"/>
<polygon class="st6" points="560.6,60 560.6,115.4 633.4,115.4 618.1,60 "/>
<path class="st7" d="M627.8,48.4H485V33h124.5c7.7,0,14.6,4.8,17.2,12.1L627.8,48.4z"/>
<rect x="63.8" y="3" class="st8" width="412.6" height="165.3"/>
<rect x="457.7" y="12.2" class="st9" width="9.6" height="146.9"/>
<rect x="436.4" y="12.2" class="st9" width="9.6" height="146.9"/>
<rect x="415" y="12.2" class="st9" width="9.6" height="146.9"/>
<rect x="393.6" y="12.2" class="st9" width="9.6" height="146.9"/>
<rect x="372.2" y="12.2" class="st9" width="9.6" height="146.9"/>
<rect x="350.9" y="12.2" class="st9" width="9.6" height="146.9"/>
<rect x="329.5" y="12.2" class="st9" width="9.6" height="146.9"/>
<rect x="308.1" y="12.2" class="st9" width="9.6" height="146.9"/>
<rect x="286.8" y="12.2" class="st9" width="9.6" height="146.9"/>
<rect x="265.4" y="12.2" class="st9" width="9.6" height="146.9"/>
<rect x="244" y="12.2" class="st9" width="9.6" height="146.9"/>
<rect x="222.6" y="12.2" class="st9" width="9.6" height="146.9"/>
<rect x="201.3" y="12.2" class="st9" width="9.6" height="146.9"/>
<rect x="179.9" y="12.2" class="st9" width="9.6" height="146.9"/>
<rect x="158.5" y="12.2" class="st9" width="9.6" height="146.9"/>
<rect x="137.2" y="12.2" class="st9" width="9.6" height="146.9"/>
<rect x="115.8" y="12.2" class="st9" width="9.6" height="146.9"/>
<rect x="94.4" y="12.2" class="st9" width="9.6" height="146.9"/>
<path class="st6" d="M601.6,127.9h-21.1c-1.7,0-3,1.3-3,3v2.7c0,1.7,1.4,3,3,3h21.1c1.7,0,3-1.4,3-3v-2.7
	C604.6,129.3,603.2,127.9,601.6,127.9z"/>
<path class="st0" d="M654.2,189.8h-53.5v40.7h40.9c8.8,0,15.9-7.1,15.9-15.9v-21.5C657.5,191.2,656,189.8,654.2,189.8z"/>
<rect x="389.9" y="175.7" class="st0" width="100.8" height="47.6"/>
<rect x="389.9" y="209" class="st1" width="100.8" height="14.3"/>
<rect x="389.9" y="175.7" class="st10" width="100.8" height="14.3"/>
<polygon class="st2" points="401.7,175.7 401.7,190.1 401.7,209 401.7,223.3 409.8,223.3 409.8,209 409.8,190.1 409.8,175.7 "/>
<polygon class="st2" points="463,175.7 463,190.1 463,209 463,223.3 471.2,223.3 471.2,209 471.2,190.1 471.2,175.7 "/>
<path class="st11" d="M651.9,144.5v34.3h-13.7c-5.3,0-9.5-4.3-9.5-9.5v-24.7H651.9z"/>
</svg>
