<?xml version="1.0" encoding="utf-8"?>
<!-- Generator: Adobe Illustrator 22.0.1, SVG Export Plug-In . SVG Version: 6.00 Build 0)  -->
<svg version="1.1" id="car" xmlns="http://www.w3.org/2000/svg" xmlns:xlink="http://www.w3.org/1999/xlink" x="0px" y="0px"
	 viewBox="0 0 612 227.7" style="enable-background:new 0 0 612 227.7;" xml:space="preserve">
<style type="text/css">
	.st0{fill:#231F20;}
	.st1{fill:#83888F;}
	.st2{fill:#5C616C;}
	.st3{fill:#232736;}
	.st4{fill:#323948;}
	.st5{fill:#FFFFFF;}
	.st6{fill:#FAB318;}
</style>
<rect x="342.2" y="107.2" class="st0" width="18.5" height="9"/>
<rect x="249" y="106.3" class="st0" width="18.5" height="9"/>
<path class="st1" d="M519.1,127.4v47.4c0,6-4.8,10.8-10.8,10.8H173.8l-18.1-1.4L126,182c-4.4,0-7.9-3.6-7.9-7.9V58.4
	c0-13,10.6-23.5,23.5-23.5l226,0.2c6.9,0,13.3,3.9,16.5,10l26.5,50.5l85.3,6.8C509,103.4,519.1,114.3,519.1,127.4z"/>
<path class="st2" d="M118,165v9c0,4.4,3.6,7.9,7.9,7.9l29.7,2.3l18.1,1.4h334.5c6,0,10.8-4.8,10.8-10.8V165H118z"/>
<path class="st0" d="M140.2,61.8v37.7h64.5V48.6l-51.1,0C146.1,48.5,140.2,54.5,140.2,61.8z"/>
<polygon class="st0" points="224.8,48.6 224.8,99.5 296.5,99.5 296.5,48.7 "/>
<path class="st0" d="M396.1,99.5l-21.6-43.7c-2.1-4.3-6.5-7-11.3-7l-46.5-0.1v50.8H396.1z"/>
<path class="st3" d="M250.3,185.6h-76.5l-18.1-1.4c2.4-23.9,22.7-42.7,47.2-42.7C228,141.5,248.6,161,250.3,185.6z"/>
<path class="st3" d="M451.5,185.6h-94.7c1.8-24.6,22.3-44,47.4-44C429.2,141.5,449.8,161,451.5,185.6z"/>
<ellipse transform="matrix(0.9966 -8.248028e-02 8.248028e-02 0.9966 -14.8987 17.385)" class="st4" cx="203" cy="189" rx="38.1" ry="38.1"/>
<ellipse transform="matrix(0.9871 -0.1602 0.1602 0.9871 -27.6565 34.9527)" class="st5" cx="203" cy="189" rx="22.9" ry="22.9"/>
<circle class="st4" cx="203" cy="189" r="14.3"/>
<ellipse transform="matrix(0.1222 -0.9925 0.9925 0.1222 167.2087 567.0912)" class="st4" cx="404.2" cy="189" rx="38.1" ry="38.1"/>
<ellipse transform="matrix(0.3827 -0.9239 0.9239 0.3827 74.8872 490.1127)" class="st5" cx="404.2" cy="189" rx="22.9" ry="22.9"/>
<circle class="st4" cx="404.2" cy="189" r="14.3"/>
<path class="st4" d="M118.1,65h-13.7c-6.4,0-11.6,5.2-11.6,11.6v52.6c0,6.4,5.2,11.6,11.6,11.6h13.7V65z"/>
<path class="st6" d="M495.9,102.4l-11.4-0.9v26.9c0,6.5,5.3,11.8,11.8,11.8h22.8v-12.9C519.1,114.3,509,103.4,495.9,102.4z"/>
<rect x="341.1" y="106.8" class="st3" width="23.5" height="7.8"/>
<rect x="249" y="106.8" class="st3" width="23.5" height="7.8"/>
</svg>
